<svg width="756" height="127" viewBox="0 0 756 127" fill="none" xmlns="http://www.w3.org/2000/svg">
<rect y="1" width="150" height="126" rx="22" fill="url(#paint0_linear_391_20)"/>
<path d="M220.272 90.96C217.456 90.96 214.928 90.832 212.688 90.576C210.512 90.32 208.112 89.84 205.488 89.136C202.544 88.368 200.112 87.376 198.192 86.16C196.272 84.88 194.672 83.12 193.392 80.88C192.048 78.64 191.376 75.984 191.376 72.912V45.552C191.376 33.008 201.008 26.736 220.272 26.736C225.2 26.736 231.792 27.44 240.048 28.848V40.08C232.624 38.288 226.096 37.392 220.464 37.392C218.096 37.392 216.24 37.456 214.896 37.584C213.616 37.712 212.272 38.032 210.864 38.544C207.856 39.568 206.352 41.84 206.352 45.36V71.856C206.352 77.488 211.504 80.304 221.808 80.304C226.224 80.304 232.432 79.376 240.432 77.52V88.848C233.584 90.256 226.864 90.96 220.272 90.96ZM249.425 43.536H262.769V51.696C262.769 50.224 263.377 48.784 264.593 47.376C265.809 45.968 267.345 44.816 269.201 43.92C271.121 43.024 273.009 42.576 274.865 42.576H279.857V54.192H275.057C271.089 54.192 268.145 54.8 266.225 56.016C264.369 57.232 263.441 59.248 263.441 62.064V90H249.425V43.536ZM287.966 26.736H301.982V38.064H287.966V26.736ZM287.966 43.536H301.982V90H287.966V43.536ZM332.051 90.96C327.059 90.96 320.947 90.48 313.715 89.52V80.208C322.611 81.552 328.787 82.224 332.243 82.224C335.187 82.224 337.363 81.936 338.771 81.36C340.179 80.784 340.883 79.728 340.883 78.192V75.312C340.883 73.712 340.435 72.592 339.539 71.952C338.643 71.248 336.883 70.896 334.259 70.896H328.211C323.283 70.896 319.475 69.936 316.787 68.016C314.099 66.032 312.755 63.152 312.755 59.376V53.712C312.755 49.68 314.675 46.832 318.515 45.168C322.355 43.44 328.147 42.576 335.891 42.576C338.963 42.576 344.467 42.864 352.403 43.44V52.368C342.419 51.6 336.787 51.216 335.507 51.216C331.731 51.216 329.267 51.472 328.115 51.984C327.091 52.56 326.579 53.616 326.579 55.152V57.648C326.579 58.48 326.995 59.216 327.827 59.856C328.659 60.432 329.875 60.72 331.475 60.72H337.619C349.011 60.72 354.707 64.432 354.707 71.856V77.712C354.707 79.952 354.291 81.904 353.459 83.568C352.627 85.232 351.539 86.544 350.195 87.504C348.915 88.4 347.251 89.104 345.203 89.616C343.219 90.128 341.139 90.48 338.963 90.672C336.979 90.864 334.675 90.96 332.051 90.96ZM365.113 43.536H378.361V48.144C379.193 46.096 380.825 44.656 383.257 43.824C385.689 42.992 389.305 42.576 394.105 42.576C398.137 42.576 401.369 42.896 403.801 43.536C406.297 44.176 408.185 45.2 409.465 46.608C410.681 48.016 411.513 49.584 411.961 51.312C412.409 52.976 412.633 55.28 412.633 58.224V73.488C412.633 78.096 411.961 81.648 410.617 84.144C409.273 86.64 407.193 88.4 404.377 89.424C401.625 90.448 397.849 90.96 393.049 90.96C388.441 90.96 385.113 90.576 383.065 89.808C381.017 89.04 379.705 87.536 379.129 85.296V109.968H365.113V43.536ZM388.729 82.224C391.481 82.224 393.561 82.032 394.969 81.648C396.377 81.264 397.337 80.592 397.849 79.632C398.361 78.672 398.617 77.232 398.617 75.312V58.128C398.617 56.016 398.393 54.512 397.945 53.616C397.497 52.656 396.601 52.016 395.257 51.696C393.913 51.376 391.705 51.216 388.633 51.216C386.009 51.216 383.993 51.44 382.585 51.888C381.241 52.336 380.313 53.04 379.801 54C379.353 54.96 379.129 56.336 379.129 58.128V75.312C379.129 77.232 379.353 78.672 379.801 79.632C380.313 80.592 381.241 81.264 382.585 81.648C383.929 82.032 385.977 82.224 388.729 82.224ZM436.765 89.616L418.237 43.536H433.501L443.965 76.368L453.469 43.536H467.965L442.525 109.968H428.317L436.765 89.616ZM503.022 90.96C500.206 90.96 497.678 90.832 495.438 90.576C493.262 90.32 490.862 89.84 488.238 89.136C485.294 88.368 482.862 87.376 480.942 86.16C479.022 84.88 477.422 83.12 476.142 80.88C474.798 78.64 474.126 75.984 474.126 72.912V45.552C474.126 33.008 483.758 26.736 503.022 26.736C507.95 26.736 514.542 27.44 522.798 28.848V40.08C515.374 38.288 508.846 37.392 503.214 37.392C500.846 37.392 498.99 37.456 497.646 37.584C496.366 37.712 495.022 38.032 493.614 38.544C490.606 39.568 489.102 41.84 489.102 45.36V71.856C489.102 77.488 494.254 80.304 504.558 80.304C508.974 80.304 515.182 79.376 523.182 77.52V88.848C516.334 90.256 509.614 90.96 503.022 90.96ZM532.175 22.8H546.191V49.2C547.087 44.784 551.983 42.576 560.879 42.576C566.831 42.576 570.991 43.664 573.359 45.84C575.791 47.952 577.007 51.312 577.007 55.92V90H562.991V57.552C562.991 55.76 562.799 54.448 562.415 53.616C562.095 52.72 561.423 52.112 560.399 51.792C559.375 51.408 557.743 51.216 555.503 51.216C552.751 51.216 550.735 51.376 549.455 51.696C548.175 52.016 547.311 52.624 546.863 53.52C546.415 54.352 546.191 55.696 546.191 57.552V90H532.175V22.8ZM602.421 90.96C598.069 90.96 594.805 90.576 592.629 89.808C590.517 88.976 589.013 87.536 588.117 85.488C587.285 83.376 586.869 80.24 586.869 76.08C586.869 72.368 587.317 69.456 588.213 67.344C589.173 65.232 590.677 63.728 592.725 62.832C594.837 61.872 597.717 61.392 601.365 61.392H617.109V58.224C617.109 56.24 616.821 54.768 616.245 53.808C615.733 52.848 614.741 52.176 613.269 51.792C611.861 51.408 609.717 51.216 606.837 51.216C602.869 51.216 597.429 51.6 590.517 52.368V43.536C595.573 42.896 601.493 42.576 608.277 42.576C614.229 42.576 618.805 43.024 622.005 43.92C625.269 44.816 627.605 46.352 629.013 48.528C630.421 50.704 631.125 53.872 631.125 58.032V90H617.397V85.776C616.309 87.632 614.837 88.944 612.981 89.712C611.125 90.544 607.605 90.96 602.421 90.96ZM607.893 82.224C610.709 82.224 612.725 82.128 613.941 81.936C614.837 81.808 615.445 81.616 615.765 81.36C616.149 81.104 616.469 80.688 616.725 80.112C616.981 79.664 617.109 78.992 617.109 78.096V69.072H607.509C605.333 69.072 603.797 69.232 602.901 69.552C602.005 69.808 601.397 70.384 601.077 71.28C600.757 72.112 600.597 73.616 600.597 75.792C600.597 77.904 600.757 79.376 601.077 80.208C601.397 81.04 602.005 81.584 602.901 81.84C603.861 82.096 605.525 82.224 607.893 82.224ZM666.689 90.96C664.321 90.96 662.337 90.864 660.737 90.672C659.137 90.48 657.537 90.096 655.937 89.52C654.145 88.944 652.673 88.144 651.521 87.12C650.433 86.096 649.537 84.688 648.833 82.896C648.065 81.04 647.681 78.896 647.681 76.464V52.176H638.273V43.536H647.681V30.096H661.697V43.536H674.465V52.176H661.697V74.064C661.697 76.304 661.889 78 662.273 79.152C662.657 80.24 663.393 81.04 664.481 81.552C665.569 82 667.233 82.224 669.473 82.224C670.369 82.224 672.033 82.064 674.465 81.744V90.48C671.457 90.8 668.865 90.96 666.689 90.96Z" fill="white"/>
<path d="M49.272 90.96C46.456 90.96 43.928 90.832 41.688 90.576C39.512 90.32 37.112 89.84 34.488 89.136C31.544 88.368 29.112 87.376 27.192 86.16C25.272 84.88 23.672 83.12 22.392 80.88C21.048 78.64 20.376 75.984 20.376 72.912V45.552C20.376 33.008 30.008 26.736 49.272 26.736C54.2 26.736 60.792 27.44 69.048 28.848V40.08C61.624 38.288 55.096 37.392 49.464 37.392C47.096 37.392 45.24 37.456 43.896 37.584C42.616 37.712 41.272 38.032 39.864 38.544C36.856 39.568 35.352 41.84 35.352 45.36V71.856C35.352 77.488 40.504 80.304 50.808 80.304C55.224 80.304 61.432 79.376 69.432 77.52V88.848C62.584 90.256 55.864 90.96 49.272 90.96ZM97.9133 90.96C95.0973 90.96 92.5693 90.832 90.3293 90.576C88.1533 90.32 85.7533 89.84 83.1293 89.136C80.1853 88.368 77.7533 87.376 75.8333 86.16C73.9133 84.88 72.3133 83.12 71.0333 80.88C69.6893 78.64 69.0173 75.984 69.0173 72.912V45.552C69.0173 33.008 78.6493 26.736 97.9133 26.736C102.841 26.736 109.433 27.44 117.689 28.848V40.08C110.265 38.288 103.737 37.392 98.1053 37.392C95.7373 37.392 93.8813 37.456 92.5373 37.584C91.2573 37.712 89.9133 38.032 88.5053 38.544C85.4973 39.568 83.9933 41.84 83.9933 45.36V71.856C83.9933 77.488 89.1453 80.304 99.4493 80.304C103.865 80.304 110.073 79.376 118.073 77.52V88.848C111.225 90.256 104.505 90.96 97.9133 90.96Z" fill="#03091B"/>
<path d="M33.8057 106.844L27.7031 79.6769L52.0996 88.4653L33.8057 106.844Z" fill="#03091B"/>
<path d="M85.8057 106.844L79.7031 79.6769L104.1 88.4653L85.8057 106.844Z" fill="#03091B"/>
<defs>
<linearGradient id="paint0_linear_391_20" x1="75" y1="1" x2="75" y2="127" gradientUnits="userSpaceOnUse">
<stop stop-color="#FD9EA7"/>
<stop offset="0.490575" stop-color="#FEB68A"/>
<stop offset="1" stop-color="#FFBE80"/>
</linearGradient>
</defs>
</svg>
